<mxfile host="Electron" agent="Mozilla/5.0 (Windows NT 10.0; Win64; x64) AppleWebKit/537.36 (KHTML, like Gecko) draw.io/24.7.17 Chrome/128.0.6613.36 Electron/32.0.1 Safari/537.36" version="24.7.17">
  <diagram name="PÃ¡gina-1" id="mR6NWWSRV8DBt9cm4Z9Y">
    <mxGraphModel dx="1434" dy="1004" grid="1" gridSize="10" guides="1" tooltips="1" connect="1" arrows="1" fold="1" page="1" pageScale="1" pageWidth="1169" pageHeight="827" math="0" shadow="0">
      <root>
        <mxCell id="0" />
        <mxCell id="1" parent="0" />
        <mxCell id="5ylhZgmYIeDFopqw3REU-6" value="FRONTLINE" style="swimlane;whiteSpace=wrap;html=1;fillColor=#0050ef;fontColor=#ffffff;strokeColor=#001DBC;" vertex="1" parent="1">
          <mxGeometry x="280" y="100" width="360" height="500" as="geometry" />
        </mxCell>
        <mxCell id="5ylhZgmYIeDFopqw3REU-13" value="CONNECTOR" style="shape=process;whiteSpace=wrap;html=1;backgroundOutline=1;fillColor=#a20025;fontColor=#ffffff;strokeColor=#6F0000;" vertex="1" parent="5ylhZgmYIeDFopqw3REU-6">
          <mxGeometry x="80" y="277" width="120" height="60" as="geometry" />
        </mxCell>
        <mxCell id="5ylhZgmYIeDFopqw3REU-14" value="SCENE" style="shape=process;whiteSpace=wrap;html=1;backgroundOutline=1;verticalAlign=top;align=center;fillColor=#0050ef;fontColor=#ffffff;strokeColor=#001DBC;" vertex="1" parent="5ylhZgmYIeDFopqw3REU-6">
          <mxGeometry x="80" y="50" width="190" height="100" as="geometry" />
        </mxCell>
        <mxCell id="5ylhZgmYIeDFopqw3REU-15" value="EDITOR" style="shape=process;whiteSpace=wrap;html=1;backgroundOutline=1;fillColor=#0050ef;fontColor=#ffffff;strokeColor=#001DBC;" vertex="1" parent="5ylhZgmYIeDFopqw3REU-6">
          <mxGeometry x="80" y="180" width="120" height="60" as="geometry" />
        </mxCell>
        <mxCell id="5ylhZgmYIeDFopqw3REU-17" value="BAREBONE" style="shape=process;whiteSpace=wrap;html=1;backgroundOutline=1;fillColor=#CCCC00;fontColor=#330000;strokeColor=#A1A100;" vertex="1" parent="5ylhZgmYIeDFopqw3REU-6">
          <mxGeometry x="80" y="380" width="120" height="60" as="geometry" />
        </mxCell>
        <mxCell id="5ylhZgmYIeDFopqw3REU-18" value="UNREAL&lt;br&gt;SERVER" style="shape=process;whiteSpace=wrap;html=1;backgroundOutline=1;fillColor=#008a00;fontColor=#ffffff;strokeColor=#005700;" vertex="1" parent="5ylhZgmYIeDFopqw3REU-6">
          <mxGeometry x="115" y="80" width="120" height="60" as="geometry" />
        </mxCell>
        <mxCell id="5ylhZgmYIeDFopqw3REU-48" value="" style="endArrow=classic;startArrow=classic;html=1;rounded=0;exitX=1;exitY=0.75;exitDx=0;exitDy=0;edgeStyle=orthogonalEdgeStyle;entryX=1;entryY=0.5;entryDx=0;entryDy=0;fillColor=#0050ef;strokeColor=#3399FF;" edge="1" parent="5ylhZgmYIeDFopqw3REU-6" source="5ylhZgmYIeDFopqw3REU-13" target="5ylhZgmYIeDFopqw3REU-14">
          <mxGeometry width="50" height="50" relative="1" as="geometry">
            <mxPoint x="270" y="320" as="sourcePoint" />
            <mxPoint x="320" y="270" as="targetPoint" />
            <Array as="points">
              <mxPoint x="320" y="322" />
              <mxPoint x="320" y="100" />
            </Array>
          </mxGeometry>
        </mxCell>
        <mxCell id="5ylhZgmYIeDFopqw3REU-49" value="" style="endArrow=classic;startArrow=classic;html=1;rounded=0;exitX=1;exitY=0.75;exitDx=0;exitDy=0;edgeStyle=orthogonalEdgeStyle;entryX=1;entryY=0.5;entryDx=0;entryDy=0;fillColor=#0050ef;strokeColor=#3399FF;" edge="1" parent="5ylhZgmYIeDFopqw3REU-6" source="5ylhZgmYIeDFopqw3REU-15" target="5ylhZgmYIeDFopqw3REU-14">
          <mxGeometry width="50" height="50" relative="1" as="geometry">
            <mxPoint x="210" y="317" as="sourcePoint" />
            <mxPoint x="280" y="110" as="targetPoint" />
            <Array as="points">
              <mxPoint x="320" y="225" />
              <mxPoint x="320" y="100" />
            </Array>
          </mxGeometry>
        </mxCell>
        <mxCell id="5ylhZgmYIeDFopqw3REU-50" value="" style="endArrow=classic;startArrow=classic;html=1;rounded=0;exitX=1;exitY=0.25;exitDx=0;exitDy=0;edgeStyle=orthogonalEdgeStyle;entryX=1;entryY=0.5;entryDx=0;entryDy=0;fillColor=#0050ef;strokeColor=#3399FF;" edge="1" parent="5ylhZgmYIeDFopqw3REU-6" source="5ylhZgmYIeDFopqw3REU-17" target="5ylhZgmYIeDFopqw3REU-14">
          <mxGeometry width="50" height="50" relative="1" as="geometry">
            <mxPoint x="200" y="410.5" as="sourcePoint" />
            <mxPoint x="270" y="203.5" as="targetPoint" />
            <Array as="points">
              <mxPoint x="320" y="395" />
              <mxPoint x="320" y="100" />
            </Array>
          </mxGeometry>
        </mxCell>
        <mxCell id="5ylhZgmYIeDFopqw3REU-7" value="BACKLINE" style="swimlane;whiteSpace=wrap;html=1;fillColor=#6a00ff;fontColor=#ffffff;strokeColor=#6600CC;" vertex="1" parent="1">
          <mxGeometry x="720" y="100" width="400" height="500" as="geometry" />
        </mxCell>
        <mxCell id="5ylhZgmYIeDFopqw3REU-32" value="NARRATOR" style="shape=process;whiteSpace=wrap;html=1;backgroundOutline=1;fillColor=#6a00ff;fontColor=#ffffff;strokeColor=#3700CC;" vertex="1" parent="5ylhZgmYIeDFopqw3REU-7">
          <mxGeometry x="260" y="180" width="120" height="60" as="geometry" />
        </mxCell>
        <mxCell id="5ylhZgmYIeDFopqw3REU-33" value="NARRATOR" style="shape=process;whiteSpace=wrap;html=1;backgroundOutline=1;fillColor=#6a00ff;fontColor=#ffffff;strokeColor=#3700CC;" vertex="1" parent="5ylhZgmYIeDFopqw3REU-7">
          <mxGeometry x="20" y="180" width="120" height="60" as="geometry" />
        </mxCell>
        <mxCell id="5ylhZgmYIeDFopqw3REU-34" value="NARRATOR" style="shape=process;whiteSpace=wrap;html=1;backgroundOutline=1;fillColor=#6a00ff;fontColor=#ffffff;strokeColor=#3700CC;" vertex="1" parent="5ylhZgmYIeDFopqw3REU-7">
          <mxGeometry x="260" y="300" width="120" height="60" as="geometry" />
        </mxCell>
        <mxCell id="5ylhZgmYIeDFopqw3REU-35" value="NARRATOR" style="shape=process;whiteSpace=wrap;html=1;backgroundOutline=1;fillColor=#6a00ff;fontColor=#ffffff;strokeColor=#3700CC;" vertex="1" parent="5ylhZgmYIeDFopqw3REU-7">
          <mxGeometry x="20" y="300" width="120" height="60" as="geometry" />
        </mxCell>
        <mxCell id="5ylhZgmYIeDFopqw3REU-36" value="NARRATOR" style="shape=process;whiteSpace=wrap;html=1;backgroundOutline=1;fillColor=#6a00ff;fontColor=#ffffff;strokeColor=#3700CC;" vertex="1" parent="5ylhZgmYIeDFopqw3REU-7">
          <mxGeometry x="140" y="420" width="120" height="60" as="geometry" />
        </mxCell>
        <mxCell id="5ylhZgmYIeDFopqw3REU-37" value="NARRATOR" style="shape=process;whiteSpace=wrap;html=1;backgroundOutline=1;fillColor=#6a00ff;fontColor=#ffffff;strokeColor=#3700CC;" vertex="1" parent="5ylhZgmYIeDFopqw3REU-7">
          <mxGeometry x="140" y="60" width="120" height="60" as="geometry" />
        </mxCell>
        <mxCell id="5ylhZgmYIeDFopqw3REU-38" value="" style="endArrow=classic;startArrow=classic;html=1;rounded=0;entryX=0.25;entryY=1;entryDx=0;entryDy=0;exitX=0.75;exitY=0;exitDx=0;exitDy=0;fillColor=#6a00ff;strokeColor=#9933FF;" edge="1" parent="5ylhZgmYIeDFopqw3REU-7" source="5ylhZgmYIeDFopqw3REU-33" target="5ylhZgmYIeDFopqw3REU-37">
          <mxGeometry width="50" height="50" relative="1" as="geometry">
            <mxPoint x="-160" y="340" as="sourcePoint" />
            <mxPoint x="-110" y="290" as="targetPoint" />
          </mxGeometry>
        </mxCell>
        <mxCell id="5ylhZgmYIeDFopqw3REU-39" value="" style="endArrow=classic;startArrow=classic;html=1;rounded=0;entryX=0.75;entryY=1;entryDx=0;entryDy=0;exitX=0.25;exitY=0;exitDx=0;exitDy=0;fillColor=#6a00ff;strokeColor=#9933FF;" edge="1" parent="5ylhZgmYIeDFopqw3REU-7" source="5ylhZgmYIeDFopqw3REU-32" target="5ylhZgmYIeDFopqw3REU-37">
          <mxGeometry width="50" height="50" relative="1" as="geometry">
            <mxPoint x="-160" y="340" as="sourcePoint" />
            <mxPoint x="-110" y="290" as="targetPoint" />
          </mxGeometry>
        </mxCell>
        <mxCell id="5ylhZgmYIeDFopqw3REU-40" value="" style="endArrow=classic;startArrow=classic;html=1;rounded=0;entryX=0.25;entryY=0;entryDx=0;entryDy=0;exitX=0.75;exitY=1;exitDx=0;exitDy=0;fillColor=#6a00ff;strokeColor=#9933FF;" edge="1" parent="5ylhZgmYIeDFopqw3REU-7" source="5ylhZgmYIeDFopqw3REU-35" target="5ylhZgmYIeDFopqw3REU-36">
          <mxGeometry width="50" height="50" relative="1" as="geometry">
            <mxPoint x="-160" y="340" as="sourcePoint" />
            <mxPoint x="-110" y="290" as="targetPoint" />
          </mxGeometry>
        </mxCell>
        <mxCell id="5ylhZgmYIeDFopqw3REU-41" value="" style="endArrow=classic;startArrow=classic;html=1;rounded=0;entryX=0.25;entryY=1;entryDx=0;entryDy=0;exitX=0.75;exitY=0;exitDx=0;exitDy=0;fillColor=#6a00ff;strokeColor=#9933FF;" edge="1" parent="5ylhZgmYIeDFopqw3REU-7" source="5ylhZgmYIeDFopqw3REU-36" target="5ylhZgmYIeDFopqw3REU-34">
          <mxGeometry width="50" height="50" relative="1" as="geometry">
            <mxPoint x="-160" y="340" as="sourcePoint" />
            <mxPoint x="-110" y="290" as="targetPoint" />
          </mxGeometry>
        </mxCell>
        <mxCell id="5ylhZgmYIeDFopqw3REU-42" value="" style="endArrow=classic;startArrow=classic;html=1;rounded=0;entryX=0.5;entryY=1;entryDx=0;entryDy=0;exitX=0.5;exitY=0;exitDx=0;exitDy=0;fillColor=#6a00ff;strokeColor=#9933FF;" edge="1" parent="5ylhZgmYIeDFopqw3REU-7" source="5ylhZgmYIeDFopqw3REU-35" target="5ylhZgmYIeDFopqw3REU-33">
          <mxGeometry width="50" height="50" relative="1" as="geometry">
            <mxPoint x="-240" y="670" as="sourcePoint" />
            <mxPoint x="-190" y="620" as="targetPoint" />
          </mxGeometry>
        </mxCell>
        <mxCell id="5ylhZgmYIeDFopqw3REU-43" value="" style="endArrow=classic;startArrow=classic;html=1;rounded=0;entryX=0.5;entryY=1;entryDx=0;entryDy=0;exitX=0.5;exitY=0;exitDx=0;exitDy=0;fillColor=#6a00ff;strokeColor=#9933FF;" edge="1" parent="5ylhZgmYIeDFopqw3REU-7" source="5ylhZgmYIeDFopqw3REU-34" target="5ylhZgmYIeDFopqw3REU-32">
          <mxGeometry width="50" height="50" relative="1" as="geometry">
            <mxPoint x="-210" y="620" as="sourcePoint" />
            <mxPoint x="-160" y="570" as="targetPoint" />
          </mxGeometry>
        </mxCell>
        <mxCell id="5ylhZgmYIeDFopqw3REU-56" value="" style="endArrow=classic;startArrow=classic;html=1;rounded=0;entryX=0;entryY=0.5;entryDx=0;entryDy=0;exitX=0.25;exitY=0;exitDx=0;exitDy=0;fillColor=#0050ef;strokeColor=#3399FF;" edge="1" parent="5ylhZgmYIeDFopqw3REU-7" source="5ylhZgmYIeDFopqw3REU-33" target="5ylhZgmYIeDFopqw3REU-37">
          <mxGeometry width="50" height="50" relative="1" as="geometry">
            <mxPoint x="-140" y="650" as="sourcePoint" />
            <mxPoint x="-90" y="600" as="targetPoint" />
          </mxGeometry>
        </mxCell>
        <mxCell id="5ylhZgmYIeDFopqw3REU-57" value="" style="endArrow=classic;startArrow=classic;html=1;rounded=0;entryX=1;entryY=0.5;entryDx=0;entryDy=0;exitX=0.75;exitY=0;exitDx=0;exitDy=0;fillColor=#0050ef;strokeColor=#3399FF;" edge="1" parent="5ylhZgmYIeDFopqw3REU-7" source="5ylhZgmYIeDFopqw3REU-32" target="5ylhZgmYIeDFopqw3REU-37">
          <mxGeometry width="50" height="50" relative="1" as="geometry">
            <mxPoint x="-300" y="410" as="sourcePoint" />
            <mxPoint x="-250" y="360" as="targetPoint" />
          </mxGeometry>
        </mxCell>
        <mxCell id="5ylhZgmYIeDFopqw3REU-58" value="" style="endArrow=classic;startArrow=classic;html=1;rounded=0;entryX=0.25;entryY=1;entryDx=0;entryDy=0;exitX=0.25;exitY=0;exitDx=0;exitDy=0;fillColor=#0050ef;strokeColor=#3399FF;" edge="1" parent="5ylhZgmYIeDFopqw3REU-7" source="5ylhZgmYIeDFopqw3REU-35" target="5ylhZgmYIeDFopqw3REU-33">
          <mxGeometry width="50" height="50" relative="1" as="geometry">
            <mxPoint x="70" y="640" as="sourcePoint" />
            <mxPoint x="120" y="590" as="targetPoint" />
          </mxGeometry>
        </mxCell>
        <mxCell id="5ylhZgmYIeDFopqw3REU-59" value="" style="endArrow=classic;startArrow=classic;html=1;rounded=0;entryX=0.75;entryY=1;entryDx=0;entryDy=0;exitX=0.75;exitY=0;exitDx=0;exitDy=0;fillColor=#0050ef;strokeColor=#3399FF;" edge="1" parent="5ylhZgmYIeDFopqw3REU-7" source="5ylhZgmYIeDFopqw3REU-34" target="5ylhZgmYIeDFopqw3REU-32">
          <mxGeometry width="50" height="50" relative="1" as="geometry">
            <mxPoint x="-300" y="410" as="sourcePoint" />
            <mxPoint x="-250" y="360" as="targetPoint" />
          </mxGeometry>
        </mxCell>
        <mxCell id="5ylhZgmYIeDFopqw3REU-60" value="" style="endArrow=classic;startArrow=classic;html=1;rounded=0;entryX=0.25;entryY=1;entryDx=0;entryDy=0;exitX=0;exitY=0.5;exitDx=0;exitDy=0;fillColor=#0050ef;strokeColor=#3399FF;" edge="1" parent="5ylhZgmYIeDFopqw3REU-7" source="5ylhZgmYIeDFopqw3REU-36" target="5ylhZgmYIeDFopqw3REU-35">
          <mxGeometry width="50" height="50" relative="1" as="geometry">
            <mxPoint x="-300" y="410" as="sourcePoint" />
            <mxPoint x="-250" y="360" as="targetPoint" />
          </mxGeometry>
        </mxCell>
        <mxCell id="5ylhZgmYIeDFopqw3REU-61" value="" style="endArrow=classic;startArrow=classic;html=1;rounded=0;exitX=1;exitY=0.5;exitDx=0;exitDy=0;entryX=0.75;entryY=1;entryDx=0;entryDy=0;fillColor=#0050ef;strokeColor=#3399FF;" edge="1" parent="5ylhZgmYIeDFopqw3REU-7" source="5ylhZgmYIeDFopqw3REU-36" target="5ylhZgmYIeDFopqw3REU-34">
          <mxGeometry width="50" height="50" relative="1" as="geometry">
            <mxPoint x="-300" y="410" as="sourcePoint" />
            <mxPoint x="-250" y="360" as="targetPoint" />
          </mxGeometry>
        </mxCell>
        <mxCell id="5ylhZgmYIeDFopqw3REU-8" value="CLIENT" style="swimlane;whiteSpace=wrap;html=1;fillColor=#a20025;fontColor=#ffffff;strokeColor=#6F0000;" vertex="1" parent="1">
          <mxGeometry x="40" y="197" width="200" height="346" as="geometry" />
        </mxCell>
        <mxCell id="5ylhZgmYIeDFopqw3REU-12" value="UNREAL&lt;br&gt;CLIENT" style="shape=process;whiteSpace=wrap;html=1;backgroundOutline=1;fillColor=#008a00;fontColor=#ffffff;strokeColor=#005700;" vertex="1" parent="5ylhZgmYIeDFopqw3REU-8">
          <mxGeometry x="40" y="46" width="120" height="60" as="geometry" />
        </mxCell>
        <mxCell id="5ylhZgmYIeDFopqw3REU-10" value="ASPNETCORE" style="shape=process;whiteSpace=wrap;html=1;backgroundOutline=1;fillColor=#CCCC00;fontColor=#330000;strokeColor=#A1A100;" vertex="1" parent="5ylhZgmYIeDFopqw3REU-8">
          <mxGeometry x="40" y="256" width="120" height="60" as="geometry" />
        </mxCell>
        <mxCell id="5ylhZgmYIeDFopqw3REU-16" value="UNREAL&lt;br&gt;EDITOR" style="shape=process;whiteSpace=wrap;html=1;backgroundOutline=1;fillColor=#008a00;fontColor=#ffffff;strokeColor=#005700;" vertex="1" parent="5ylhZgmYIeDFopqw3REU-8">
          <mxGeometry x="40" y="150" width="120" height="60" as="geometry" />
        </mxCell>
        <mxCell id="5ylhZgmYIeDFopqw3REU-44" value="" style="endArrow=classic;startArrow=classic;html=1;rounded=0;exitX=1;exitY=0.5;exitDx=0;exitDy=0;entryX=0;entryY=0.5;entryDx=0;entryDy=0;edgeStyle=orthogonalEdgeStyle;fillColor=#60a917;strokeColor=#A1A100;" edge="1" parent="1" source="5ylhZgmYIeDFopqw3REU-10" target="5ylhZgmYIeDFopqw3REU-17">
          <mxGeometry width="50" height="50" relative="1" as="geometry">
            <mxPoint x="80" y="750" as="sourcePoint" />
            <mxPoint x="130" y="700" as="targetPoint" />
            <Array as="points">
              <mxPoint x="300" y="483" />
              <mxPoint x="300" y="510" />
            </Array>
          </mxGeometry>
        </mxCell>
        <mxCell id="5ylhZgmYIeDFopqw3REU-45" value="" style="endArrow=classic;startArrow=classic;html=1;rounded=0;entryX=0;entryY=0.5;entryDx=0;entryDy=0;fillColor=#d80073;strokeColor=#A50040;" edge="1" parent="1" target="5ylhZgmYIeDFopqw3REU-13">
          <mxGeometry width="50" height="50" relative="1" as="geometry">
            <mxPoint x="240" y="407" as="sourcePoint" />
            <mxPoint x="290" y="400" as="targetPoint" />
          </mxGeometry>
        </mxCell>
        <mxCell id="5ylhZgmYIeDFopqw3REU-46" value="" style="endArrow=classic;startArrow=classic;html=1;rounded=0;entryX=0;entryY=0.5;entryDx=0;entryDy=0;exitX=1;exitY=0.5;exitDx=0;exitDy=0;edgeStyle=orthogonalEdgeStyle;fillColor=#60a917;strokeColor=#2D7600;" edge="1" parent="1" source="5ylhZgmYIeDFopqw3REU-16" target="5ylhZgmYIeDFopqw3REU-15">
          <mxGeometry width="50" height="50" relative="1" as="geometry">
            <mxPoint x="110" y="710" as="sourcePoint" />
            <mxPoint x="160" y="660" as="targetPoint" />
            <Array as="points">
              <mxPoint x="300" y="377" />
              <mxPoint x="300" y="310" />
            </Array>
          </mxGeometry>
        </mxCell>
        <mxCell id="5ylhZgmYIeDFopqw3REU-47" value="" style="endArrow=classic;startArrow=classic;html=1;rounded=0;exitX=1;exitY=0.5;exitDx=0;exitDy=0;entryX=0;entryY=0.5;entryDx=0;entryDy=0;edgeStyle=orthogonalEdgeStyle;fillColor=#60a917;strokeColor=#2D7600;" edge="1" parent="1" source="5ylhZgmYIeDFopqw3REU-12" target="5ylhZgmYIeDFopqw3REU-18">
          <mxGeometry width="50" height="50" relative="1" as="geometry">
            <mxPoint x="420" y="510" as="sourcePoint" />
            <mxPoint x="470" y="460" as="targetPoint" />
          </mxGeometry>
        </mxCell>
        <mxCell id="5ylhZgmYIeDFopqw3REU-51" value="" style="endArrow=classic;startArrow=classic;html=1;rounded=0;exitX=1;exitY=0.5;exitDx=0;exitDy=0;entryX=0;entryY=0.5;entryDx=0;entryDy=0;strokeColor=#9933FF;" edge="1" parent="1" source="5ylhZgmYIeDFopqw3REU-6" target="5ylhZgmYIeDFopqw3REU-7">
          <mxGeometry width="50" height="50" relative="1" as="geometry">
            <mxPoint x="510" y="720" as="sourcePoint" />
            <mxPoint x="560" y="670" as="targetPoint" />
          </mxGeometry>
        </mxCell>
        <mxCell id="5ylhZgmYIeDFopqw3REU-52" value="" style="endArrow=classic;startArrow=classic;html=1;rounded=0;exitX=1;exitY=0.25;exitDx=0;exitDy=0;entryX=0;entryY=0.25;entryDx=0;entryDy=0;edgeStyle=orthogonalEdgeStyle;fillColor=#0050ef;strokeColor=#3399FF;" edge="1" parent="1" source="5ylhZgmYIeDFopqw3REU-14" target="5ylhZgmYIeDFopqw3REU-33">
          <mxGeometry width="50" height="50" relative="1" as="geometry">
            <mxPoint x="570" y="750" as="sourcePoint" />
            <mxPoint x="620" y="700" as="targetPoint" />
            <Array as="points">
              <mxPoint x="680" y="175" />
              <mxPoint x="680" y="295" />
            </Array>
          </mxGeometry>
        </mxCell>
        <mxCell id="5ylhZgmYIeDFopqw3REU-53" value="" style="endArrow=classic;startArrow=classic;html=1;rounded=0;exitX=1;exitY=0.75;exitDx=0;exitDy=0;entryX=0;entryY=0.75;entryDx=0;entryDy=0;edgeStyle=orthogonalEdgeStyle;fillColor=#0050ef;strokeColor=#3399FF;" edge="1" parent="1" source="5ylhZgmYIeDFopqw3REU-17" target="5ylhZgmYIeDFopqw3REU-35">
          <mxGeometry width="50" height="50" relative="1" as="geometry">
            <mxPoint x="520" y="790" as="sourcePoint" />
            <mxPoint x="570" y="740" as="targetPoint" />
            <Array as="points">
              <mxPoint x="680" y="525" />
              <mxPoint x="680" y="445" />
            </Array>
          </mxGeometry>
        </mxCell>
        <mxCell id="5ylhZgmYIeDFopqw3REU-54" value="" style="endArrow=classic;startArrow=classic;html=1;rounded=0;exitX=1;exitY=0.25;exitDx=0;exitDy=0;entryX=0;entryY=0.25;entryDx=0;entryDy=0;edgeStyle=orthogonalEdgeStyle;fillColor=#0050ef;strokeColor=#3399FF;" edge="1" parent="1" source="5ylhZgmYIeDFopqw3REU-13" target="5ylhZgmYIeDFopqw3REU-35">
          <mxGeometry width="50" height="50" relative="1" as="geometry">
            <mxPoint x="580" y="760" as="sourcePoint" />
            <mxPoint x="630" y="710" as="targetPoint" />
            <Array as="points">
              <mxPoint x="680" y="392" />
              <mxPoint x="680" y="415" />
            </Array>
          </mxGeometry>
        </mxCell>
        <mxCell id="5ylhZgmYIeDFopqw3REU-55" value="" style="endArrow=classic;startArrow=classic;html=1;rounded=0;exitX=1;exitY=0.25;exitDx=0;exitDy=0;entryX=0;entryY=0.75;entryDx=0;entryDy=0;edgeStyle=orthogonalEdgeStyle;fillColor=#0050ef;strokeColor=#3399FF;" edge="1" parent="1" source="5ylhZgmYIeDFopqw3REU-15" target="5ylhZgmYIeDFopqw3REU-33">
          <mxGeometry width="50" height="50" relative="1" as="geometry">
            <mxPoint x="650" y="750" as="sourcePoint" />
            <mxPoint x="700" y="700" as="targetPoint" />
            <Array as="points">
              <mxPoint x="660" y="295" />
              <mxPoint x="660" y="325" />
            </Array>
          </mxGeometry>
        </mxCell>
      </root>
    </mxGraphModel>
  </diagram>
</mxfile>
